<?xml version="1.0" encoding="UTF-8" standalone="no"?>
<svg
   xmlns:dc="http://purl.org/dc/elements/1.1/"
   xmlns:cc="http://creativecommons.org/ns#"
   xmlns:rdf="http://www.w3.org/1999/02/22-rdf-syntax-ns#"
   xmlns:svg="http://www.w3.org/2000/svg"
   xmlns="http://www.w3.org/2000/svg"
   xmlns:sodipodi="http://sodipodi.sourceforge.net/DTD/sodipodi-0.dtd"
   xmlns:inkscape="http://www.inkscape.org/namespaces/inkscape"
   height="1000"
   width="1000"
   version="1"
   id="svg3068"
   inkscape:version="0.48.5 r10040"
   sodipodi:docname="linkedin.svg">
  <metadata
     id="metadata3076">
    <rdf:RDF>
      <cc:Work
         rdf:about="">
        <dc:format>image/svg+xml</dc:format>
        <dc:type
           rdf:resource="http://purl.org/dc/dcmitype/StillImage" />
        <dc:title></dc:title>
      </cc:Work>
    </rdf:RDF>
  </metadata>
  <defs
     id="defs3074" />
  <sodipodi:namedview
     pagecolor="#ffffff"
     bordercolor="#666666"
     borderopacity="1"
     objecttolerance="10"
     gridtolerance="10"
     guidetolerance="10"
     inkscape:pageopacity="0"
     inkscape:pageshadow="2"
     inkscape:window-width="1276"
     inkscape:window-height="755"
     id="namedview3072"
     showgrid="false"
     inkscape:zoom="0.236"
     inkscape:cx="-250"
     inkscape:cy="500"
     inkscape:window-x="5"
     inkscape:window-y="1"
     inkscape:window-maximized="0"
     inkscape:current-layer="svg3068" />
  <path
     d="M195.877 .25c-107.717 0 -195.877 88.158 -195.877 195.877l0 607.841c0 107.717 88.158 195.845 195.877 195.845l607.841 0c107.718 0 195.845 -88.127 195.845 -195.845l0 -607.841c0 -107.717 -88.127 -195.877 -195.845 -195.877l-607.841 0zm49.266 164.948c51.648 0 83.461 33.906 84.443 78.475 0 43.585 -32.797 78.444 -85.442 78.444l-.969 0c-50.665 0 -83.412 -34.857 -83.412 -78.444 0 -44.568 33.738 -78.475 85.379 -78.475zm445.08 208.31c99.329 0 173.79 64.922 173.79 204.436l0 260.449l-150.953 0l0 -242.987c0 -61.06 -21.847 -102.718 -76.476 -102.718 -41.704 0 -66.562 28.078 -77.476 55.202 -3.987 9.704 -4.967 23.257 -4.967 36.832l0 253.671l-150.953 0s1.981 -411.613 0 -454.233l150.984 0l0 64.324c20.06 -30.95 55.942 -74.977 136.051 -74.977zm-521.556 10.685l150.953 0l0 454.202l-150.953 0l0 -454.202z"
     id="path3070"
     style="fill:#ffffff;fill-opacity:1;stroke:#000000;stroke-opacity:1" />
</svg>
